<svg id="SvgjsSvg1055" width="288" height="288" xmlns="http://www.w3.org/2000/svg" version="1.1" xmlns:xlink="http://www.w3.org/1999/xlink" xmlns:svgjs="http://svgjs.com/svgjs"><defs id="SvgjsDefs1056"></defs><g id="SvgjsG1057"><svg xmlns="http://www.w3.org/2000/svg" data-name="Layer 1" viewBox="0 0 128 128" width="288" height="288"><path d="M53.82 123.16q-1-.16-1.9-.36a2 2 0 0 0-.8 3.92q1 .21 2 .38l.34 0a2 2 0 0 0 .33-4zM45.38 121.07q-.92-.3-1.83-.63a2 2 0 0 0-1.36 3.76q1 .35 2 .67a2 2 0 0 0 1.24-3.8zM8.24 36.77a2 2 0 0 0 2.7-.83q.46-.86.94-1.7a2 2 0 1 0-3.47-2q-.51.9-1 1.81A2 2 0 0 0 8.24 36.77zM12.77 29a2 2 0 0 0 2.8-.43q.57-.78 1.17-1.55a2 2 0 1 0-3.15-2.47q-.64.81-1.25 1.65A2 2 0 0 0 12.77 29zM19.78 22.52a2 2 0 0 0 1.43-.6q.68-.69 1.38-1.36a2 2 0 1 0-2.76-2.89q-.75.71-1.47 1.45a2 2 0 0 0 1.43 3.4zM26.52 16.58a2 2 0 0 0 1.21-.41q.77-.58 1.56-1.15A2 2 0 0 0 27 11.76q-.84.6-1.66 1.22a2 2 0 0 0 1.21 3.59zM34.05 11.67a2 2 0 0 0 1-.25q.84-.47 1.71-.91A2 2 0 0 0 34.9 6.95q-.92.47-1.82 1a2 2 0 0 0 1 3.75zM93.38 11.64q.84.48 1.67 1a2 2 0 0 0 2.07-3.42q-.88-.54-1.78-1a2 2 0 0 0-2 3.49zM100.63 16.45q.77.59 1.51 1.21a2 2 0 0 0 2.54-3.09q-.8-.66-1.61-1.29a2 2 0 0 0-2.45 3.17zM108.44 23.67a2 2 0 1 0 3-2.69q-.69-.76-1.41-1.51a2 2 0 1 0-2.87 2.78Q107.79 23 108.44 23.67zM85.5 7.93q.91.35 1.8.72A2 2 0 1 0 88.85 5q-1-.4-1.92-.77A2 2 0 0 0 85.5 7.93zM50.83 5.36a2 2 0 0 0 .42 0q.94-.2 1.9-.38A2 2 0 0 0 52.43 1q-1 .19-2 .4a2 2 0 0 0 .42 4zM59.73 4.11h.14q1-.07 1.93-.1a2 2 0 0 0-.15-4q-1 0-2.06.11a2 2 0 0 0 .13 4zM77.17 5.41q.95.21 1.88.45a2 2 0 0 0 .5.06A2 2 0 0 0 80.05 2q-1-.26-2-.48a2 2 0 0 0-.87 3.91zM68.57 4.13q1 .07 1.93.18h.22a2 2 0 0 0 .21-4q-1-.11-2.05-.19a2 2 0 0 0-.3 4zM42.21 7.9a2 2 0 0 0 .7-.13q.91-.34 1.82-.65a2 2 0 0 0-1.29-3.79q-1 .33-1.94.69a2 2 0 0 0 .7 3.88zM102.64 109.9q-.74.62-1.5 1.22a2 2 0 1 0 2.48 3.14q.81-.64 1.6-1.3a2 2 0 0 0-2.58-3.06zM116.94 96.34a2 2 0 0 0-2.77.57q-.53.81-1.09 1.6a2 2 0 1 0 3.27 2.3q.59-.84 1.16-1.71A2 2 0 0 0 116.94 96.34zM108.88 103.83q-.64.73-1.31 1.43a2 2 0 1 0 2.91 2.75q.71-.75 1.39-1.52a2 2 0 1 0-3-2.66zM121.06 88.34a2 2 0 0 0-2.66 1q-.41.88-.85 1.74a2 2 0 1 0 3.57 1.81q.47-.92.9-1.86A2 2 0 0 0 121.06 88.34zM124 79.83a2 2 0 0 0-2.49 1.35q-.28.93-.58 1.85a2 2 0 1 0 3.79 1.27q.33-1 .62-2A2 2 0 0 0 124 79.83zM95.61 115q-.82.51-1.66 1a2 2 0 1 0 2 3.46q.89-.52 1.76-1.06a2 2 0 0 0-2.11-3.4zM71.17 123.59q-1 .11-1.92.2a2 2 0 0 0 .17 4h.17q1-.09 2.05-.21a2 2 0 0 0-.47-4zM87.91 119.06q-.88.38-1.78.74a2 2 0 1 0 1.47 3.72q1-.38 1.9-.79a2 2 0 0 0-1.6-3.67zM79.71 121.94q-.93.25-1.87.48a2 2 0 0 0 .46 3.95 2 2 0 0 0 .46-.05q1-.24 2-.51a2 2 0 0 0-1-3.86zM62.48 124q-1 0-1.93-.08a2 2 0 0 0-.23 4q1 .06 2.06.08h.05a2 2 0 0 0 0-4zM101.38 78.91a2.12 2.12 0 0 0 .44.06h.53c9.6 0 16.64-3 20.94-9 9.16-12.74 2.19-34.09 1.89-35-1.42-4.19-4.15-4.81-5.65-4.81a8.52 8.52 0 0 0-4.89 1.89 2 2 0 0 0-.51.63 8.13 8.13 0 0 1-3.71 3.38c-1.13-10.25-9.64-13.88-16-16.59-2.82-1.2-5.48-2.34-7-3.78a1.92 1.92 0 0 0-.64-.4A21.8 21.8 0 0 0 79 14 34.56 34.56 0 0 0 67.17 16.2a46.23 46.23 0 0 0-8.56 4.44 25 25 0 0 0-2.67 2.1c-1.19 1-2.82 2.43-3.67 2.63-6.49 1.5-11.7 6.75-13.18 8.36C22.57 38.75 12.09 47 8 58.36c-.18.5-.35 1-.5 1.5A3.71 3.71 0 0 1 5 58.22c-2-3.07-.4-9.4.37-11.57a2 2 0 0 0-3.77-1.34c-.35 1-3.31 9.79 0 15a7.71 7.71 0 0 0 5 3.4 39.42 39.42 0 0 0 .39 14.82A18.34 18.34 0 0 1 2.52 87C.41 89.17-1 92.88.89 95.86 2.57 98.52 6 104 11.47 104c.23 0 .46 0 .69 0l0 .2a6.35 6.35 0 0 0 4.64 7.62l9.35 2.28a7 7 0 0 0 1.57.19 6 6 0 0 0 5.91-4.53l.72-3.1c.83-1 1.79-3.4 3.14-8.85 1.24.1 3.22.2 6.43.21a5.79 5.79 0 0 0-1.47 2.73 5.87 5.87 0 0 0 .94 4.7L47.91 112c1.38 2 4.19 4 6.9 4a4.87 4.87 0 0 0 2.25-.52 15.31 15.31 0 0 0 4.94-4.3 44.05 44.05 0 0 0 4.19-3.32c1.76 1.68 5 2.19 8.33 2.19a48.79 48.79 0 0 0 8-.76 4.86 4.86 0 0 0 3.78-2.47c1.37-2.49.21-5.8-.17-6.73a177.87 177.87 0 0 0-5.23-17.89l3.71 2.19c3.32 2 6.13 2.89 8.58 2.89A7.34 7.34 0 0 0 99.52 84a10.69 10.69 0 0 0 1.75-5.12zM115.22 42a2.43 2.43 0 0 0 1.55-1 2 2 0 0 1 3.44 2 6.38 6.38 0 0 1-4.48 3h-.24a2 2 0 0 1-.27-4zm-102 57.68c-3.48 1.23-6-1.28-8.91-6-.67-1 0-2.84 1.13-4a19.93 19.93 0 0 0 3.31-4.64A59 59 0 0 0 14 96.44zM45 50a2 2 0 1 1-2 2A2 2 0 0 1 45 50zM34 95a6.87 6.87 0 0 0-1.58-3.82A2 2 0 1 1 35.6 88.8a11.35 11.35 0 0 1 2.3 5A29.16 29.16 0 0 1 34 95zm20.25 3.54A1.94 1.94 0 0 1 53 99a2 2 0 0 1-1.57-.76l-.11-.16a15.6 15.6 0 0 1-2-4.14A12.16 12.16 0 0 1 49 91.11a10.69 10.69 0 0 1 .3-2.65 2 2 0 0 1 3.86 1.07 7.5 7.5 0 0 0 1.4 6.23A2 2 0 0 1 54.24 98.57zM64.37 75.29a2 2 0 0 1-2.22 1.57c-1.39-.12-7.23 2.51-11.87 5A15.53 15.53 0 0 1 42.7 84a13.27 13.27 0 0 1-11-6.16c-1.54-2-.45-5.11.27-6.68 0 0 0-.09 0-.14a35.16 35.16 0 0 0-3.17-6.14C25.89 62.44 26 57.7 26 57.15a1.53 1.53 0 0 1 0-.3C26.7 53.43 32.28 44.68 36.12 39c1.65-1.1 5.11-3.29 7.17-3.78l0 0a2 2 0 0 1-.35.91c-4.61 6.56-12.11 18-12.9 21.33 0 1 .25 3.55 1.5 4.44a2 2 0 0 1 .53.56c.49.77 1.24 2 2 3.35 1.29-2.92 3-6.46 4.5-8.14a2 2 0 0 1 3 2.63c-1.68 1.92-4.31 8.06-5.43 10.87 0 .1 0 .2 0 .28a2.08 2.08 0 0 1-.22.92 7.32 7.32 0 0 0-.91 3.1 1.87 1.87 0 0 1 .12.18c.47.76 4.88 7.35 13.28 2.7 2.74-1.48 8.69-4.52 12.36-5.3a71.16 71.16 0 0 0 1.14-16.57c-1.9-7.3-2.27-11.86-1.09-13.54a2 2 0 0 1 3.36 2.16c-.3 1.13.46 6 1.65 10.54a1.33 1.33 0 0 1 .05.34C66.58 64.82 64.46 74.87 64.37 75.29zM82.29 101.1l.13.41c.42.94.81 2.69.42 3.4-.05.09-.18.33-.92.44-6.15 1.06-11.89.75-12.89-.23a38.55 38.55 0 0 0 9.45-17.63C79.85 91.73 81.47 97.1 82.29 101.1zm5.64-26.61A2 2 0 0 1 86 76a1.73 1.73 0 0 1-.5-.07c-2.84-.72-4.55-1.84-5.22-3.41a3.79 3.79 0 0 1 .27-3.39 8 8 0 0 0 1.21-4.79A2 2 0 0 1 83.38 62a2 2 0 0 1 2.31 1.59A11.54 11.54 0 0 1 84.07 71a6.13 6.13 0 0 0 2.42 1A2 2 0 0 1 87.93 74.49zM86.84 44.41l-2-.16a2 2 0 0 1-3.53 1.82l-.65 1A2 2 0 0 1 79 48a1.94 1.94 0 0 1-1.08-.32 2 2 0 0 1-.59-2.77l2.59-4a2 2 0 0 1 1.84-.9l5.4.43a2 2 0 0 1-.31 4zM111 40.16h.06l-.08 0zM97.66 38a2.09 2.09 0 0 1-1.09-.32A2 2 0 0 1 96 34.89l2.59-4a2 2 0 0 1 1.84-.91l3.62.29a6.26 6.26 0 0 1 2 4.09 1.51 1.51 0 0 1-.52 0l-1.85-.15s0 0 0 .06a2 2 0 0 1-2 2 2 2 0 0 1-1.44-.61l-.88 1.36A2 2 0 0 1 97.66 38zm1.93 14.67A2 2 0 0 1 99 49.94c.1-.17 2.6-4.08 8.75-4l.11 0h0a1.64 1.64 0 0 1 0-.23c-.09-1-.35-2.87-.64-4.83l2.35-.47.69-.14.57-.12.15 0h0l.13 0h0l-.06 0c1 5 2.34 15.53-3.85 18.52a2.08 2.08 0 0 1-.87.2 2 2 0 0 1-.87-3.81c1.41-.68 2.08-2.53 2.32-4.81 0-.1 0-.2 0-.3h-.21c-3.79-.1-5.21 2-5.26 2.08a2 2 0 0 1-1.69.9A2 2 0 0 1 99.59 52.65z" fill="#3d5288" class="color000 svgShape"></path></svg></g></svg>