<svg xmlns="http://www.w3.org/2000/svg" xmlns:xlink="http://www.w3.org/1999/xlink" viewBox="0,0,256,256" width="48px" height="48px" fill-rule="nonzero"><defs><linearGradient x1="5.435" y1="5.435" x2="41.676" y2="41.676" gradientUnits="userSpaceOnUse" id="color-1"><stop offset="0" stop-color="#253d77"></stop><stop offset="1" stop-color="#253d77" stop-opacity="0.85098"></stop></linearGradient></defs><g fill="none" fill-rule="nonzero" stroke="none" stroke-width="1" stroke-linecap="butt" stroke-linejoin="miter" stroke-miterlimit="10" stroke-dasharray="" stroke-dashoffset="0" font-family="none" font-weight="none" font-size="none" text-anchor="none" style="mix-blend-mode: normal"><g transform="scale(5.33333,5.33333)"><circle cx="24" cy="24" r="20" fill="url(#color-1)"></circle><path d="M24,6c-1,3 2,5.5 2,8.5c0,1 0,2.5 0.5,4c0,-2 0,-7 2.5,-9.5c-1,4.5 3,8 3,11.5c0,2.5 -1,4.5 -2,6c0,0 5,-1 6.5,-1.5c-0.5,1.5 -2,4 -3,5c-2,0 -19,0 -19,0c-1,-1 -2.5,-3.5 -3,-5c2.5,0.5 6.5,1.5 6.5,1.5c-1.5,-1 -2.5,-2.5 -2.5,-4.5c0,-3 2.5,-7.5 2.5,-9c0,-0.5 0,-1 -0.5,-2c1.5,0.5 2.5,2.5 2.5,5.5c1,-1 1.5,-3 1.5,-6.5c0,-3 2.5,-4 2.5,-4M34,32v3h-20v-3h20M29.91,37c-0.47,2.84 -2.94,5 -5.91,5c-2.97,0 -5.44,-2.16 -5.91,-5h11.82M25.63,4.271l-2.002,0.801c-0.127,0.051 -3.128,1.293 -3.128,4.928c0,1.044 -0.045,1.951 -0.136,2.727c-0.543,-1.359 -1.416,-2.299 -2.547,-2.676l-2.29,-0.763l1.08,2.159c0.393,0.789 0.393,1.109 0.393,1.553c0,0.439 -0.461,1.659 -0.867,2.735c-0.728,1.927 -1.633,4.325 -1.633,6.265c0,1.007 0.213,1.94 0.628,2.778c-1.142,-0.267 -2.405,-0.553 -3.432,-0.758l-1.69,-0.338l0.545,1.635c0.552,1.657 2.128,4.277 3.242,5.391l0.293,0.292h-0.086h-1v1v3v1h1h2.911l0.193,1.163c0.559,3.382 3.46,5.837 6.896,5.837c3.436,0 6.337,-2.455 6.897,-5.837l0.192,-1.163h2.911h1v-1v-3v-1h-1h-0.086l0.293,-0.293c1.114,-1.114 2.689,-3.734 3.242,-5.391l0.632,-1.897l-1.897,0.632c-0.802,0.267 -2.709,0.696 -4.23,1.021c0.702,-1.513 1.046,-3.023 1.046,-4.572c0,-1.705 -0.793,-3.349 -1.559,-4.939c-0.967,-2.007 -1.968,-4.081 -1.465,-6.344l0.745,-3.352l-2.428,2.428c-0.917,0.917 -1.533,2.092 -1.946,3.337c-0.175,-0.424 -0.368,-0.839 -0.56,-1.25c-0.686,-1.471 -1.279,-2.741 -0.838,-4.064l0.681,-2.045z" fill="#000000" opacity="0.05"></path><path d="M24,6c-1,3 2,5.5 2,8.5c0,1 0,2.5 0.5,4c0,-2 0,-7 2.5,-9.5c-1,4.5 3,8 3,11.5c0,2.5 -1,4.5 -2,6c0,0 5,-1 6.5,-1.5c-0.5,1.5 -2,4 -3,5c-2,0 -19,0 -19,0c-1,-1 -2.5,-3.5 -3,-5c2.5,0.5 6.5,1.5 6.5,1.5c-1.5,-1 -2.5,-2.5 -2.5,-4.5c0,-3 2.5,-7.5 2.5,-9c0,-0.5 0,-1 -0.5,-2c1.5,0.5 2.5,2.5 2.5,5.5c1,-1 1.5,-3 1.5,-6.5c0,-3 2.5,-4 2.5,-4M34,32v3h-20v-3h20M29.91,37c-0.47,2.84 -2.94,5 -5.91,5c-2.97,0 -5.44,-2.16 -5.91,-5h11.82M24.815,5.135l-1.001,0.4c-0.115,0.047 -2.814,1.164 -2.814,4.465c0,2.16 -0.198,3.774 -0.603,4.879c-0.307,-2.285 -1.283,-3.868 -2.739,-4.354l-1.145,-0.382l0.54,1.08c0.447,0.895 0.447,1.304 0.447,1.777c0,0.53 -0.437,1.687 -0.899,2.912c-0.713,1.889 -1.601,4.239 -1.601,6.088c0,1.346 0.414,2.547 1.213,3.549c-1.378,-0.331 -3.232,-0.763 -4.615,-1.04l-0.845,-0.169l0.272,0.817c0.523,1.571 2.069,4.144 3.121,5.195l0.146,0.146h0.208h19h0.207l0.146,-0.146c1.051,-1.051 2.597,-3.625 3.121,-5.195l0.316,-0.949l-0.949,0.316c-1.02,0.34 -3.754,0.928 -5.312,1.253c0.988,-1.758 1.47,-3.495 1.47,-5.279c0,-1.591 -0.733,-3.112 -1.509,-4.722c-1.004,-2.083 -2.043,-4.238 -1.502,-6.67l0.372,-1.676l-1.214,1.214c-1.247,1.246 -1.906,3.027 -2.255,4.786c-0.197,-0.997 -0.633,-1.931 -1.058,-2.841c-0.701,-1.502 -1.363,-2.921 -0.859,-4.433l0.341,-1.021zM34.5,31.5h-0.5h-20h-0.5v0.5v3v0.5h0.5h20h0.5v-0.5v-3v-0.5zM30.5,36.5h-0.59h-11.82h-0.59l0.096,0.582c0.52,3.14 3.213,5.418 6.403,5.418c3.19,0 5.884,-2.279 6.403,-5.418l0.098,-0.582z" fill="#000000" opacity="0.07"></path><path d="M29.91,37c-0.47,2.84 -2.94,5 -5.91,5c-2.97,0 -5.44,-2.16 -5.91,-5zM34,32h-20v3h20zM33.5,30c1,-1 2.5,-3.5 3,-5c-1.5,0.5 -6.5,1.5 -6.5,1.5c1,-1.5 2,-3.5 2,-6c0,-3.5 -4,-7 -3,-11.5c-2.5,2.5 -2.5,7.5 -2.5,9.5c-0.5,-1.5 -0.5,-3 -0.5,-4c0,-3 -3,-5.5 -2,-8.5c0,0 -2.5,1 -2.5,4c0,3.5 -0.5,5.5 -1.5,6.5c0,-3 -1,-5 -2.5,-5.5c0.5,1 0.5,1.5 0.5,2c0,1.5 -2.5,6 -2.5,9c0,2 1,3.5 2.5,4.5c0,0 -4,-1 -6.5,-1.5c0.5,1.5 2,4 3,5c0,0 17,0 19,0z" fill="#ffffff"></path></g></g></svg>