<svg xmlns="http://www.w3.org/2000/svg" xmlns:xlink="http://www.w3.org/1999/xlink" viewBox="0,0,256,256" width="96px" height="96px" fill-rule="nonzero"><g fill="none" fill-rule="nonzero" stroke="none" stroke-width="1" stroke-linecap="butt" stroke-linejoin="miter" stroke-miterlimit="10" stroke-dasharray="" stroke-dashoffset="0" font-family="none" font-weight="none" font-size="none" text-anchor="none" style="mix-blend-mode: normal"><g transform="scale(5.33333,5.33333)"><path d="M40,41h-32c-2.206,0 -4,-1.794 -4,-4v-26c0,-2.206 1.794,-4 4,-4h32c2.206,0 4,1.794 4,4v26c0,2.206 -1.794,4 -4,4z" fill="#253d77"></path><path d="M34,12.98h-19.98c-2.2,0 -4,1.79 -4,4v13.02c0,1.86 1.27,3.42 2.98,3.86v-2.14c-0.59,-0.35 -0.98,-0.99 -0.98,-1.72v-13.02c0,-1.1 0.9,-2 2,-2h19.98c1.1,0 2,0.9 2,2v13.02c0,0.74 -0.4,1.38 -1,1.73v2.14c1.73,-0.44 3,-2.01 3,-3.87v-13.02c0,-2.21 -1.79,-4 -4,-4z" fill="#ffffff"></path><path d="M16.5,28v0c0.828,0 1.5,0.672 1.5,1.5v5c0,0.828 -0.672,1.5 -1.5,1.5v0c-0.828,0 -1.5,-0.672 -1.5,-1.5v-5c0,-0.828 0.672,-1.5 1.5,-1.5z" fill="#ffffff"></path><path d="M21.5,22v0c0.828,0 1.5,0.672 1.5,1.5v11c0,0.828 -0.672,1.5 -1.5,1.5v0c-0.828,0 -1.5,-0.672 -1.5,-1.5v-11c0,-0.828 0.672,-1.5 1.5,-1.5z" fill="#ffffff"></path><path d="M26.5,25v0c0.828,0 1.5,0.672 1.5,1.5v8c0,0.828 -0.672,1.5 -1.5,1.5v0c-0.828,0 -1.5,-0.672 -1.5,-1.5v-8c0,-0.828 0.672,-1.5 1.5,-1.5z" fill="#ffffff"></path><path d="M31.5,18v0c0.828,0 1.5,0.672 1.5,1.5v15c0,0.828 -0.672,1.5 -1.5,1.5v0c-0.828,0 -1.5,-0.672 -1.5,-1.5v-15c0,-0.828 0.672,-1.5 1.5,-1.5z" fill="#ffffff"></path></g></g></svg>